<?xml version="1.0" encoding="utf-8"?>
<!-- Generator: Adobe Illustrator 23.0.3, SVG Export Plug-In . SVG Version: 6.00 Build 0)  -->
<svg version="1.1" id="图层_1" xmlns="http://www.w3.org/2000/svg" xmlns:xlink="http://www.w3.org/1999/xlink" x="0px" y="0px"
	 viewBox="0 0 100 50" style="enable-background:new 0 0 100 50;" xml:space="preserve">
<style type="text/css">
	.st0{opacity:0;fill:none;stroke:#FBD88C;stroke-width:42.5197;stroke-miterlimit:10;}
	.st1{fill:#FFFFFF;}
	.st2{fill:#FABF43;}
</style>
<circle class="st0" cx="49.46" cy="22.31" r="10.79"/>
<ellipse class="st1" cx="49.56" cy="22.38" rx="13.26" ry="12.82"/>
<g>
	<path class="st2" d="M49.56,34.38c-6.84,0-12.4-5.38-12.4-12s5.56-12,12.4-12c6.84,0,12.4,5.38,12.4,12S56.4,34.38,49.56,34.38z
		 M49.56,11.07c-6.45,0-11.7,5.07-11.7,11.31s5.25,11.31,11.7,11.31c6.45,0,11.7-5.07,11.7-11.31S56.01,11.07,49.56,11.07z"/>
</g>
<g>
	<path class="st1" d="M44.16,42.49l0.05-0.23l0.17-0.92l-0.18,0.01c-0.17,0-0.26-0.05-0.26-0.21c0.01-0.25,0.09-0.38,0.32-0.5
		c0.35-0.18,1.06-0.23,1.49-0.23c0.58,0,0.9,0.09,1.1,0.3c0.1,0.11,0.2,0.32,0.2,0.42l-0.07,0.29c-0.07,0.46-0.88,0.98-1.07,1.09
		v0.03c0.46,0,0.82,0.21,0.87,0.23c0.17,0.1,0.29,0.34,0.29,0.6c0,0.21-0.07,0.46-0.23,0.59c-0.15,0.14-0.95,0.73-1.13,0.87
		c-0.21,0.18-0.22,0.18-0.42,0.26c-0.16,0.14-0.16,0.14-0.29,0.18l-0.19,0.08c-0.15,0.07-0.42,0.15-0.48,0.15
		c-0.09-0.18-0.12-0.23-0.24-0.23c-0.23-0.02-0.3-0.09-0.3-0.3l0.09-0.78l0.18-1L44.16,42.49z M44.82,43.27
		c-0.08,0.59-0.12,0.71-0.26,1.14c0.4-0.01,1.25-0.51,1.64-1.06L44.82,43.27z M45.45,41.18l-0.22,0.01l-0.17,0.95
		c0.31-0.19,0.85-0.64,1.1-0.97H45.45z"/>
	<path class="st1" d="M48.09,43.65l0.1-0.53c0.01-0.09,0.1-0.32,0.15-0.48l0.07-0.34c0.04-0.17,0.27-1,0.27-1.19
		c0-0.06-0.03-0.1-0.1-0.12c-0.04-0.01-0.05-0.01-0.05-0.03l0.05-0.1l-0.02-0.07c0-0.03,0.22-0.23,0.5-0.32
		c0.16-0.05,0.32-0.06,0.59-0.07c0.18-0.01,1.05-0.08,1.25-0.08c0.15,0,0.4,0.01,0.4,0.25c0,0.05-0.01,0.07-0.1,0.21
		c-0.1,0.15-0.11,0.17-0.29,0.19c-0.07,0.01-0.1,0.01-0.34,0.1l-0.25,0.08h-0.22l-0.31,0.04l-0.34,0.01
		c-0.02,0.05-0.27,0.81-0.23,1.17l1.61-0.17c0.4-0.02,0.4,0.1,0.4,0.17c0,0.14-0.11,0.18-0.26,0.25l-0.1,0.1
		c-0.06,0.22-0.06,0.23-0.22,0.26L50.51,43l-0.38,0.13c-0.41,0.15-0.54,0.19-0.77,0.19c-0.39,0-0.4,0.02-0.51,0.4l-0.15,0.58v0.14
		l1.64-0.18l0.04,0.01c0.16,0.01,0.18,0.01,0.27,0.14l-0.05,0.23c-0.07,0.04-0.07,0.05-0.12,0.12c-0.01,0.03-0.15,0.12-0.17,0.16
		c-0.12,0.18-0.13,0.2-0.3,0.23l-0.38,0.09c-0.15,0.04-0.47,0.1-0.81,0.1l-0.55-0.04l-0.2,0.04c-0.03,0-0.05-0.04-0.08-0.15
		l-0.04-0.11c-0.02-0.04-0.17-0.27-0.17-0.33c0-0.07,0.01-0.11,0.07-0.34L48.09,43.65z"/>
	<path class="st1" d="M52.15,43.65l0.1-0.53c0.01-0.09,0.1-0.32,0.15-0.48l0.07-0.34c0.04-0.17,0.27-1,0.27-1.19
		c0-0.06-0.03-0.1-0.1-0.12c-0.04-0.01-0.05-0.01-0.05-0.03l0.05-0.1l-0.02-0.07c0-0.03,0.22-0.23,0.5-0.32
		c0.16-0.05,0.32-0.06,0.59-0.07c0.18-0.01,1.05-0.08,1.25-0.08c0.15,0,0.4,0.01,0.4,0.25c0,0.05-0.01,0.07-0.1,0.21
		c-0.1,0.15-0.11,0.17-0.29,0.19c-0.07,0.01-0.1,0.01-0.34,0.1l-0.25,0.08h-0.22l-0.31,0.04l-0.34,0.01
		c-0.02,0.05-0.27,0.81-0.23,1.17l1.61-0.17c0.4-0.02,0.4,0.1,0.4,0.17c0,0.14-0.11,0.18-0.26,0.25l-0.1,0.1
		c-0.06,0.22-0.06,0.23-0.22,0.26L54.57,43l-0.38,0.13c-0.41,0.15-0.54,0.19-0.77,0.19c-0.39,0-0.4,0.02-0.51,0.4l-0.15,0.58v0.14
		l1.64-0.18l0.04,0.01c0.16,0.01,0.18,0.01,0.27,0.14l-0.05,0.23c-0.07,0.04-0.07,0.05-0.12,0.12c-0.01,0.03-0.15,0.12-0.17,0.16
		c-0.12,0.18-0.13,0.2-0.3,0.23l-0.38,0.09c-0.15,0.04-0.47,0.1-0.81,0.1l-0.55-0.04l-0.2,0.04c-0.03,0-0.05-0.04-0.08-0.15
		l-0.04-0.11c-0.02-0.04-0.17-0.27-0.17-0.33c0-0.07,0.01-0.11,0.07-0.34L52.15,43.65z"/>
</g>
<g>
	<polygon class="st1" points="36.73,23.12 14,23.12 14,23.09 16.84,22.98 19.68,22.93 25.36,22.85 31.05,22.93 33.89,22.98 
		36.73,23.09 	"/>
</g>
<g>
	<path class="st1" d="M85,23.12l-11.09,0.1c-1.85,0.02-3.7,0.03-5.54,0.03c-1.85-0.04-3.7-0.04-5.54-0.13v-0.03
		c1.85-0.08,3.7-0.08,5.54-0.13c1.85,0,3.7,0,5.54,0.03L85,23.09V23.12z"/>
</g>
<g>
	<g>
		<path class="st2" d="M44.89,24.31c-0.48,0-0.97-0.08-1.46-0.25c-1.03-0.34-1.67-1.04-1.75-1.91c-0.08-0.83,0.37-1.68,1.13-2.11
			c0.87-0.49,1.92-0.36,2.89,0.36c0.45,0.33,0.86,0.61,1.23,0.84c-0.14-0.36-0.21-0.75-0.2-1.18c0.02-0.89,0.38-1.49,0.84-1.88
			c-0.49-0.62-1.04-0.99-1.05-0.99l0.38-0.58c0.05,0.03,0.7,0.46,1.27,1.2c0.48-0.22,0.99-0.29,1.36-0.28l-0.02,0.69
			c-0.01,0-0.47-0.01-0.96,0.18c0.3,0.54,0.5,1.19,0.46,1.93c-0.03,0.58-0.2,1.16-0.47,1.68c0.13,0.07,0.26,0.12,0.39,0.16
			c0.26,0.08,0.44,0.1,0.52,0.11c0.03,0,0.05,0,0.07,0l0.02,0.69c-0.03,0-0.12,0-0.26-0.02c-0.13-0.02-0.27-0.04-0.43-0.09
			c-0.19-0.05-0.43-0.13-0.7-0.24c-0.29,0.38-0.64,0.72-1.03,0.99C46.45,24.08,45.69,24.31,44.89,24.31z M43.91,20.44
			c-0.27,0-0.53,0.07-0.77,0.2c-0.52,0.3-0.84,0.87-0.78,1.44c0.06,0.6,0.51,1.07,1.28,1.32c1.42,0.47,2.46,0.07,3.08-0.35
			c0.29-0.19,0.55-0.44,0.77-0.71c-0.6-0.3-1.33-0.74-2.21-1.39C44.83,20.62,44.35,20.44,43.91,20.44z M47.96,18.76
			c-0.34,0.31-0.52,0.76-0.54,1.32c-0.02,0.62,0.17,1.13,0.55,1.52c0.2-0.41,0.32-0.86,0.35-1.3C48.36,19.71,48.2,19.2,47.96,18.76z
			"/>
	</g>
	<g>
		<path class="st2" d="M49.44,25.87c-0.37,0-1.7-0.09-2.74-1.24l0.51-0.46c0.97,1.07,2.23,1.02,2.28,1.01l0.04,0.69
			C49.53,25.87,49.5,25.87,49.44,25.87z"/>
	</g>
	<g>
		<path class="st2" d="M49.51,27.13c-0.29,0-2.1-0.07-2.98-1.72l0.61-0.33c0.75,1.38,2.38,1.35,2.39,1.35l0.02,0.69
			C49.55,27.13,49.53,27.13,49.51,27.13z"/>
	</g>
	<g>
		<path class="st2" d="M49.34,28.48c-0.08-0.05-1.92-1.16-2.57-2.33c-0.69-1.25,0.16-2.89,0.2-2.96l0.22-0.41l0.33,0.33
			c0.84,0.85,2.03,0.83,2.04,0.83l0.02,0.69c-0.05,0-1.18,0.02-2.17-0.71c-0.17,0.48-0.37,1.28-0.03,1.89
			c0.56,1.01,2.3,2.06,2.32,2.07L49.34,28.48z"/>
	</g>
	<g>
		<path class="st2" d="M54.09,24.31c-0.78,0-1.52-0.22-2.16-0.66c-0.4-0.27-0.75-0.61-1.04-1.01c-0.33,0.13-0.6,0.22-0.81,0.27
			c-0.12,0.03-0.23,0.05-0.33,0.06c-0.13,0.02-0.21,0.02-0.24,0.01l0.02-0.69c0.02,0,0.04,0,0.06,0c0.08-0.01,0.24-0.03,0.5-0.1
			c0.13-0.04,0.26-0.1,0.4-0.17c-0.27-0.53-0.44-1.1-0.47-1.67c-0.04-0.74,0.16-1.39,0.45-1.94c-0.52-0.2-1.02-0.18-1.03-0.18
			l-0.03-0.69c0.04,0,0.74-0.02,1.43,0.28c0.56-0.74,1.2-1.17,1.25-1.2l0.38,0.58l-0.19-0.29l0.19,0.29
			c-0.01,0.01-0.55,0.37-1.03,0.99c0.04,0.04,0.09,0.08,0.13,0.12c0.46,0.44,0.69,1.04,0.69,1.78c0,0.46-0.08,0.85-0.22,1.18
			c0.37-0.23,0.78-0.5,1.22-0.84c0.95-0.71,1.98-0.85,2.83-0.37c0.76,0.42,1.22,1.27,1.14,2.11c-0.08,0.88-0.71,1.58-1.73,1.92
			C55.04,24.22,54.56,24.31,54.09,24.31z M51.52,22.34c0.23,0.28,0.49,0.53,0.79,0.73c0.61,0.41,1.62,0.8,2.99,0.33
			c0.76-0.26,1.21-0.73,1.26-1.33c0.05-0.57-0.26-1.15-0.79-1.44c-0.35-0.2-1.09-0.42-2.08,0.32C52.84,21.6,52.11,22.04,51.52,22.34
			z M51.07,18.75c-0.23,0.44-0.39,0.96-0.36,1.54c0.03,0.44,0.14,0.87,0.33,1.28c0.36-0.39,0.54-0.89,0.54-1.51
			c0-0.55-0.16-0.98-0.48-1.28C51.09,18.77,51.08,18.76,51.07,18.75z"/>
	</g>
	<g>
		<path class="st2" d="M49.53,25.87c-0.04,0-0.06,0-0.07,0l0.02-0.34l-0.02,0.34l-0.32-0.37l0.36-0.33c0.05,0,1.35,0.05,2.29-1.01
			l0.52,0.46C51.27,25.8,49.87,25.87,49.53,25.87z"/>
	</g>
	<g>
		<path class="st2" d="M49.55,27.13c-0.02,0-0.03,0-0.04,0l0.02-0.69c0.06,0,1.61,0.02,2.33-1.35l0.61,0.32
			C51.6,27.06,49.84,27.13,49.55,27.13z"/>
	</g>
	<g>
		<path class="st2" d="M49.87,29.84h-0.69v-1.84l0.17-0.1c0.02-0.01,1.73-1.07,2.28-2.07c0.31-0.57,0.16-1.36-0.02-1.88
			c-0.98,0.75-2.11,0.69-2.16,0.69l0.04-0.69c0.01,0,1.18,0.05,1.99-0.82l0.33-0.36l0.23,0.43c0.04,0.07,0.88,1.71,0.2,2.95
			c-0.53,0.98-1.89,1.91-2.36,2.22V29.84z"/>
	</g>
</g>
</svg>
